<!-- Author: Asresh -->
<svg xmlns="http://www.w3.org/2000/svg" viewBox="0 0 1200 620" width="1200" height="620"><rect width="1200" height="620" fill="#456672"/><defs><marker id="a" markerWidth="10" markerHeight="10" refX="9" refY="3" orient="auto"><path d="M0,0 L10,3 L0,6Z" fill="#ffe08a"/></marker><marker id="c" markerWidth="10" markerHeight="10" refX="9" refY="3" orient="auto"><path d="M0,0 L10,3 L0,6Z" fill="#85e8df"/></marker></defs><g font-family="sans-serif" fill="#fff"><rect x="35" y="210" width="190" height="130" rx="12" fill="#294754" stroke="#fff" stroke-width="3"/><text x="130" y="250" text-anchor="middle" font-size="24">BMC / Host</text><text x="130" y="282" text-anchor="middle" font-size="16">ras_driver.c</text><text x="130" y="308" text-anchor="middle" font-size="16">reference + policy</text><rect x="290" y="120" width="235" height="300" rx="12" fill="#294754" stroke="#85e8df" stroke-width="3"/><text x="407" y="155" text-anchor="middle" font-size="23">ras_mailbox_csr</text><text x="407" y="190" text-anchor="middle" font-size="15">bus_valid / bus_write</text><text x="407" y="215" text-anchor="middle" font-size="15">bus_addr[7:0]</text><text x="407" y="240" text-anchor="middle" font-size="15">bus_wdata[31:0]</text><text x="407" y="265" text-anchor="middle" font-size="15">bus_ready</text><text x="407" y="290" text-anchor="middle" font-size="15">bus_rdata[31:0]</text><text x="407" y="335" text-anchor="middle" font-size="15">16 × 16 adjacency RAM</text><text x="407" y="365" text-anchor="middle" font-size="15">seed / result / counters</text><rect x="590" y="95" width="265" height="145" rx="12" fill="#294754" stroke="#ffe08a" stroke-width="3"/><text x="722" y="132" text-anchor="middle" font-size="23">fault_frontier_fifo</text><text x="722" y="165" text-anchor="middle" font-size="16">depth: 1 × N-bit frontier</text><text x="722" y="195" text-anchor="middle" font-size="16">reached-mask feedback</text><rect x="590" y="300" width="420" height="190" rx="12" fill="#294754" stroke="#ffe08a" stroke-width="3"/><text x="800" y="338" text-anchor="middle" font-size="23">Boolean propagation array</text><g fill="#365b6d" stroke="#ffe08a" stroke-width="2"><rect x="620" y="370" width="80" height="70"/><rect x="715" y="370" width="80" height="70"/><rect x="810" y="370" width="80" height="70"/><rect x="905" y="370" width="80" height="70"/></g><text x="660" y="410" text-anchor="middle">lane 0</text><text x="755" y="410" text-anchor="middle">lane 1</text><text x="850" y="410" text-anchor="middle">lane 2</text><text x="945" y="410" text-anchor="middle">lane 3</text><text x="800" y="468" text-anchor="middle" font-size="15">4 destinations/lane · all sources in parallel</text><path d="M225 270H290" stroke="#85e8df" stroke-width="5" marker-end="url(#c)"/><text x="255" y="250" text-anchor="middle" font-size="14">MMIO</text><path d="M525 345H575V180H590" fill="none" stroke="#ffe08a" stroke-width="5" marker-end="url(#a)"/><path d="M722 240V300" stroke="#ffe08a" stroke-width="5" marker-end="url(#a)"/><path d="M800 300V260H760V240" fill="none" stroke="#ffe08a" stroke-width="5" marker-end="url(#a)"/><path d="M1010 395H1080V545H475V420" fill="none" stroke="#ffe08a" stroke-width="5" marker-end="url(#a)"/><text x="835" y="570" text-anchor="middle" font-size="15">next frontier / fixed-point result</text><path d="M400 120V55H130V210" fill="none" stroke="#85e8df" stroke-width="4" stroke-dasharray="10 8" marker-end="url(#c)"/><text x="250" y="45" text-anchor="middle" font-size="16">irq (sticky completion)</text><text x="75" y="595" font-size="16" fill="#ffe08a">solid amber: datapath</text><text x="270" y="595" font-size="16" fill="#85e8df">cyan/dashed: control and interrupt</text></g></svg>
